<?xml version="1.0" standalone="no"?>
<!DOCTYPE svg PUBLIC "-//W3C//DTD SVG 20010904//EN" "http://www.w3.org/TR/2001/REC-SVG-20010904/DTD/svg10.dtd">
<svg version="1.0" xmlns="http://www.w3.org/2000/svg" width="512.000000pt" height="512.000000pt"
  viewBox="0 0 512.000000 512.000000" preserveAspectRatio="xMidYMid meet">

  <g transform="translate(0.000000,512.000000) scale(0.100000,-0.100000)" fill="#000000" stroke="none">
    <path d="M3555 4464 c-101 -21 -205 -75 -247 -126 -55 -67 -60 -83 -53 -146 5
-46 -1 -85 -29 -206 -107 -445 -259 -947 -405 -1341 -45 -121 -84 -227 -87
-235 -6 -17 -80 113 -175 307 -33 68 -124 286 -203 485 -171 433 -266 654
-375 882 -44 93 -81 179 -81 190 0 105 -242 147 -410 70 -80 -36 -115 -76
-150 -165 -68 -176 -74 -347 -26 -694 33 -238 44 -413 51 -805 4 -179 15 -507
25 -730 11 -223 23 -509 26 -636 7 -227 7 -233 -14 -259 -52 -66 -35 -133 54
-214 63 -58 124 -77 218 -68 127 13 221 59 275 137 l23 35 -5 320 c-4 176 -16
530 -27 786 -11 256 -19 533 -18 615 l3 149 54 -130 c73 -179 156 -350 231
-480 102 -177 156 -298 221 -498 l62 -188 -18 -38 c-27 -60 -11 -95 63 -138
35 -21 57 -26 110 -26 156 0 367 102 407 197 9 20 9 40 3 66 -8 31 -5 53 20
131 16 52 53 200 82 329 48 219 182 660 200 660 3 0 13 -62 21 -137 10 -103
14 -287 14 -723 0 -608 1 -627 41 -826 30 -151 30 -164 -1 -210 -41 -60 -31
-110 28 -141 24 -13 57 -18 132 -18 86 0 111 4 178 29 96 35 164 93 198 168
36 80 32 230 -10 448 -42 210 -50 346 -38 590 18 344 14 614 -15 955 -37 430
-41 545 -29 820 12 278 4 421 -34 564 -20 74 -24 107 -19 156 6 60 5 64 -21
81 -36 24 -159 28 -250 8z" />
  </g>
</svg>
