<?xml version="1.0" encoding="UTF-8"?>
<svg version="1.1" xmlns="http://www.w3.org/2000/svg" width="192" height="192">
<path d="M0 0 C1.11359894 -0.00686325 2.22719788 -0.0137265 3.37454224 -0.02079773 C7.02863586 -0.03898795 10.68229691 -0.03523894 14.33642578 -0.02954102 C16.89413593 -0.0341067 19.45184485 -0.03941343 22.009552 -0.04542542 C27.36059134 -0.05434144 32.71147535 -0.05218712 38.0625 -0.04199219 C44.21902194 -0.03052067 50.37510773 -0.04458137 56.53157222 -0.07138866 C62.48923592 -0.09634422 68.44676587 -0.09870192 74.4044838 -0.0922718 C76.92329763 -0.09211911 79.44212006 -0.09812059 81.96090317 -0.11056328 C85.49248816 -0.12555218 89.02313064 -0.11473698 92.5546875 -0.09765625 C93.58051941 -0.10732422 94.60635132 -0.11699219 95.66326904 -0.12695312 C109.46756076 0.01184169 120.1673339 5.4484839 130.15673828 14.71655273 C139.7261004 24.82757686 142.8702931 36.38451509 142.81079102 49.99731445 C142.81765427 51.11091339 142.82451752 52.22451233 142.83158875 53.37185669 C142.84977896 57.02595032 142.84602996 60.67961137 142.84033203 64.33374023 C142.84489772 66.89145038 142.85020444 69.4491593 142.85621643 72.00686646 C142.86513246 77.35790579 142.86297813 82.70878981 142.8527832 88.05981445 C142.84131169 94.21633639 142.85537239 100.37242219 142.88217968 106.52888668 C142.90713524 112.48655037 142.90949294 118.44408033 142.90306282 124.40179825 C142.90291012 126.92061208 142.90891161 129.43943452 142.92135429 131.95821762 C142.93634319 135.48980261 142.925528 139.02044509 142.90844727 142.55200195 C142.92294922 144.09074982 142.92294922 144.09074982 142.93774414 145.6605835 C142.79894933 159.46487521 137.36230712 170.16464835 128.09423828 180.15405273 C117.98321416 189.72341485 106.42627592 192.86760755 92.81347656 192.80810547 C91.69987762 192.81496872 90.58627869 192.82183197 89.43893433 192.8289032 C85.7848407 192.84709342 82.13117965 192.84334441 78.47705078 192.83764648 C75.91934064 192.84221217 73.36163172 192.84751889 70.80392456 192.85353088 C65.45288522 192.86244691 60.10200121 192.86029259 54.75097656 192.85009766 C48.59445463 192.83862614 42.43836883 192.85268684 36.28190434 192.87949413 C30.32424065 192.90444969 24.36671069 192.90680739 18.40899277 192.90037727 C15.89017893 192.90022457 13.3713565 192.90622606 10.85257339 192.91866875 C7.3209884 192.93365765 3.79034593 192.92284245 0.25878906 192.90576172 C-1.2799588 192.92026367 -1.2799588 192.92026367 -2.84979248 192.93505859 C-16.6540842 192.79626378 -27.35385734 187.35962157 -37.34326172 178.09155273 C-46.91262384 167.98052861 -50.05681654 156.42359038 -49.99731445 142.81079102 C-50.0041777 141.69719208 -50.01104095 140.58359314 -50.01811218 139.43624878 C-50.0363024 135.78215515 -50.0325534 132.1284941 -50.02685547 128.47436523 C-50.03142116 125.91665509 -50.03672788 123.35894617 -50.04273987 120.80123901 C-50.05165589 115.45019968 -50.04950157 110.09931566 -50.03930664 104.74829102 C-50.02783513 98.59176908 -50.04189583 92.43568328 -50.06870311 86.27921879 C-50.09365868 80.3215551 -50.09601638 74.36402514 -50.08958626 68.40630722 C-50.08943356 65.88749339 -50.09543505 63.36867095 -50.10787773 60.84988785 C-50.12286663 57.31830286 -50.11205144 53.78766038 -50.0949707 50.25610352 C-50.10463867 49.23027161 -50.11430664 48.2044397 -50.12426758 47.14752197 C-49.98547277 33.34323025 -44.54883055 22.64345712 -35.28076172 12.65405273 C-25.1697376 3.08469062 -13.61279936 -0.05950209 0 0 Z " fill="#EDEDED" transform="translate(49.59326171875,-0.404052734375)"/>
<path d="M0 0 C5.64300308 5.64300308 3.40246839 22.80504686 3.5 30.375 C3.63208334 40.40317325 3.95321161 50.29737316 5.03125 60.2734375 C6.23431238 71.61326303 6.15922015 82.86007281 6 94.25 C5.94635457 98.17186396 5.90672438 102.09352955 5.875 106.015625 C5.85840332 106.88761536 5.84180664 107.75960571 5.82470703 108.65802002 C5.78471942 113.69682446 6.29417525 118.21452349 7.53408813 123.10340881 C8.86063257 128.50338393 8.73236489 133.38879724 6.4375 138.4375 C2.29121317 142.79641692 -1.91196368 144.15123132 -7.8125 144.3125 C-11.70761246 144.29238754 -11.70761246 144.29238754 -14 142 C-13.90625 140.00390625 -13.90625 140.00390625 -13.5 137.5625 C-13.00977169 133.72937493 -13.11047392 130.66678038 -13.94506836 126.90087891 C-15.115327 120.91097179 -15.32933685 115.11362098 -15.37890625 109.0234375 C-15.39590073 107.93157135 -15.4128952 106.8397052 -15.43040466 105.7147522 C-15.48303837 102.268225 -15.52365638 98.82170796 -15.5625 95.375 C-15.60643159 91.89264126 -15.65300279 88.41037443 -15.70530701 84.9281311 C-15.73728217 82.77030433 -15.76416659 80.6123951 -15.78553772 78.45443726 C-15.79902756 77.4889798 -15.8125174 76.52352234 -15.82641602 75.52880859 C-15.83592789 74.67596283 -15.84543976 73.82311707 -15.85523987 72.94442749 C-15.78771215 70.99473539 -15.78771215 70.99473539 -17 70 C-23.18765091 88.71535903 -23.18765091 88.71535903 -26.375 108.0625 C-27 112 -27 112 -29.0625 114.375 C-34.46733865 117.36491074 -39.68551916 119.86106557 -46 119 C-48.375 117.9375 -48.375 117.9375 -50 116 C-50 114.40864107 -49.98730764 112.81657564 -49.921875 111.2265625 C-50.30057834 100.43351718 -56.67025053 90.44060831 -61.67089844 81.22265625 C-64.55098706 75.90110798 -67.04078759 70.72849304 -69 65 C-69.09897841 74.10601353 -69.04675452 83.1581994 -68.5 92.25 C-68.03624441 100.48228847 -67.82949555 108.71324565 -67.76782227 116.95739746 C-67.75025537 118.9707319 -67.71800909 120.98392095 -67.68554688 122.99707031 C-67.68103516 124.23553711 -67.67652344 125.47400391 -67.671875 126.75 C-67.65785645 128.41289062 -67.65785645 128.41289062 -67.64355469 130.109375 C-68.04268731 133.34617652 -68.77030596 134.66631659 -71 137 C-75.10006719 139.41180423 -80.37737191 140.13191065 -85 139 C-88.20056301 136.40977969 -89.83248548 134.95920593 -90.55175781 130.84057617 C-90.51920898 129.66986572 -90.48666016 128.49915527 -90.453125 127.29296875 C-90.4325 125.98263672 -90.411875 124.67230469 -90.390625 123.32226562 C-90.3450022 121.9439684 -90.29812443 120.56571215 -90.25 119.1875 C-90.18248526 116.51450059 -90.1287357 113.84133666 -90.078125 111.16796875 C-90.06357773 110.49297836 -90.04903046 109.81798798 -90.03404236 109.12254333 C-89.94510575 103.79857688 -90.21624314 98.53692828 -90.59992981 93.22463989 C-90.9682707 87.98445452 -91.14373544 82.75571269 -91.24609375 77.50390625 C-91.26272064 76.69116745 -91.27934753 75.87842865 -91.29647827 75.0410614 C-91.36245931 71.71617758 -91.4244501 68.39129016 -91.47680664 65.06616211 C-91.64358219 54.8808696 -92.18490145 44.91156977 -93.5456543 34.81225586 C-94.6768084 25.32113751 -95.77643217 15.20559404 -90 7 C-86.77625161 3.77625161 -83.75534359 3.80292407 -79.375 3.6875 C-75.50565686 3.70340141 -74.3103774 3.79308173 -71 6 C-70.25234075 7.5887759 -69.51974234 9.18665529 -68.87109375 10.81835938 C-67.87545162 13.31192947 -66.78676995 15.75347391 -65.6875 18.203125 C-60.1801244 30.5820885 -54.86944653 43.01407151 -49.88085938 55.61230469 C-46.9485249 62.94314087 -43.63508678 69.99132652 -40 77 C-35.13274948 63.80162046 -30.31041431 50.64375632 -26.578125 37.07421875 C-25.94811028 34.81382812 -25.28811111 32.56339382 -24.625 30.3125 C-21.80964549 20.8994276 -21.80964549 20.8994276 -20.5625 11.1875 C-20.41021124 8.65950653 -20.30170146 7.40910327 -18.79296875 5.36328125 C-13.08419421 0.31932602 -7.35427075 -0.65337529 0 0 Z " fill="#030303" transform="translate(142,24)"/>
</svg>
