<svg xmlns="http://www.w3.org/2000/svg" width="192" height="192"><path d="M49.593-.404l3.375-.02c3.654-.019 7.308-.015 10.962-.01l7.673-.015c5.35-.01 10.702-.007 16.053.003 6.156.011 12.312-.003 18.469-.03 5.957-.024 11.915-.027 17.873-.02 2.519 0 5.037-.006 7.556-.019 3.532-.015 7.062-.004 10.594.013l3.109-.029c13.804.139 24.504 5.575 34.493 14.843 9.57 10.112 12.714 21.668 12.654 35.281l.02 3.375c.019 3.654.015 7.308.01 10.962l.015 7.673c.01 5.35.007 10.702-.003 16.053-.011 6.156.003 12.312.03 18.469.024 5.957.027 11.915.02 17.873 0 2.519.006 5.037.019 7.556.015 3.532.004 7.062-.013 10.594l.029 3.109c-.139 13.804-5.575 24.504-14.844 34.493-10.11 9.57-21.667 12.714-35.28 12.654l-3.375.02c-3.654.019-7.308.015-10.962.01l-7.673.015c-5.35.01-10.702.007-16.053-.003a2970.38 2970.38 0 00-18.469.03c-5.957.024-11.915.027-17.873.02-2.519 0-5.037.006-7.556.019-3.532.015-7.062.004-10.594-.013l-3.109.029c-13.804-.139-24.504-5.575-34.493-14.844-9.57-10.11-12.714-21.667-12.654-35.28l-.02-3.375c-.019-3.654-.015-7.308-.01-10.962l-.015-7.673c-.01-5.35-.007-10.702.003-16.053.011-6.156-.003-12.312-.03-18.469-.024-5.957-.027-11.915-.02-17.873 0-2.519-.006-5.037-.019-7.556-.015-3.532-.004-7.062.013-10.594l-.029-3.109C-.392 32.94 5.044 22.24 14.312 12.25 24.424 2.68 35.98-.464 49.593-.404z" fill="#EDEDED"/><path d="M142 24c5.643 5.643 3.402 22.805 3.5 30.375.132 10.028.453 19.922 1.531 29.898 1.203 11.34 1.128 22.587.969 33.977-.054 3.922-.093 7.844-.125 11.766l-.05 2.642c-.04 5.039.47 9.557 1.71 14.445 1.326 5.4 1.197 10.286-1.097 15.334-4.147 4.36-8.35 5.714-14.25 5.875-3.896-.02-3.896-.02-6.188-2.312.094-1.996.094-1.996.5-4.438.49-3.833.39-6.895-.445-10.661-1.17-5.99-1.384-11.787-1.434-17.878l-.051-3.308c-.053-3.447-.094-6.893-.132-10.34-.044-3.482-.091-6.965-.143-10.447-.032-2.158-.06-4.316-.08-6.474l-.041-2.925-.03-2.585c.068-1.95.068-1.95-1.144-2.944-6.188 18.715-6.188 18.715-9.375 38.063C115 136 115 136 112.938 138.375c-5.405 2.99-10.624 5.486-16.938 4.625-2.375-1.063-2.375-1.063-4-3 0-1.591.013-3.183.078-4.773-.379-10.793-6.748-20.786-11.749-30.004C77.45 99.9 74.96 94.728 73 89c-.099 9.106-.047 18.158.5 27.25.464 8.232.67 16.463.732 24.707.018 2.014.05 4.027.082 6.04l.014 3.753.028 3.36c-.399 3.236-1.126 4.556-3.356 6.89-4.1 2.412-9.377 3.132-14 2-3.2-2.59-4.832-4.04-5.552-8.16l.099-3.547.062-3.97c.046-1.379.093-2.757.141-4.136.068-2.672.121-5.346.172-8.019l.044-2.045c.089-5.324-.182-10.586-.566-15.898-.368-5.24-.544-10.47-.646-15.721l-.05-2.463c-.066-3.325-.128-6.65-.18-9.975-.168-10.185-.709-20.154-2.07-30.254C47.324 49.322 46.224 39.206 52 31c3.224-3.224 6.245-3.197 10.625-3.313 3.87.016 5.065.106 8.375 2.313.748 1.589 1.48 3.187 2.129 4.818.996 2.494 2.084 4.935 3.184 7.385 5.507 12.38 10.818 24.811 15.806 37.41C95.051 86.942 98.365 93.99 102 101c4.867-13.198 9.69-26.356 13.422-39.926.63-2.26 1.29-4.51 1.953-6.762 2.815-9.413 2.815-9.413 4.063-19.125.152-2.527.26-3.778 1.769-5.824C128.916 24.32 134.646 23.347 142 24z" fill="#030303"/></svg>