<svg version="1.0" xmlns="http://www.w3.org/2000/svg" width="682.667" height="682.667" viewBox="0 0 512 512"><path d="M355.5 65.6c-10.1 2.1-20.5 7.5-24.7 12.6-5.5 6.7-6 8.3-5.3 14.6.5 4.6-.1 8.5-2.9 20.6-10.7 44.5-25.9 94.7-40.5 134.1-4.5 12.1-8.4 22.7-8.7 23.5-.6 1.7-8-11.3-17.5-30.7-3.3-6.8-12.4-28.6-20.3-48.5-17.1-43.3-26.6-65.4-37.5-88.2-4.4-9.3-8.1-17.9-8.1-19 0-10.5-24.2-14.7-41-7-8 3.6-11.5 7.6-15 16.5-6.8 17.6-7.4 34.7-2.6 69.4 3.3 23.8 4.4 41.3 5.1 80.5.4 17.9 1.5 50.7 2.5 73 1.1 22.3 2.3 50.9 2.6 63.6.7 22.7.7 23.3-1.4 25.9-5.2 6.6-3.5 13.3 5.4 21.4 6.3 5.8 12.4 7.7 21.8 6.8 12.7-1.3 22.1-5.9 27.5-13.7l2.3-3.5-.5-32c-.4-17.6-1.6-53-2.7-78.6-1.1-25.6-1.9-53.3-1.8-61.5l.3-14.9 5.4 13c7.3 17.9 15.6 35 23.1 48 10.2 17.7 15.6 29.8 22.1 49.8l6.2 18.8-1.8 3.8c-2.7 6-1.1 9.5 6.3 13.8 3.5 2.1 5.7 2.6 11 2.6 15.6 0 36.7-10.2 40.7-19.7.9-2 .9-4 .3-6.6-.8-3.1-.5-5.3 2-13.1 1.6-5.2 5.3-20 8.2-32.9 4.8-21.9 18.2-66 20-66 .3 0 1.3 6.2 2.1 13.7 1 10.3 1.4 28.7 1.4 72.3 0 60.8.1 62.7 4.1 82.6 3 15.1 3 16.4-.1 21-4.1 6-3.1 11 2.8 14.1 2.4 1.3 5.7 1.8 13.2 1.8 8.6 0 11.1-.4 17.8-2.9 9.6-3.5 16.4-9.3 19.8-16.8 3.6-8 3.2-23-1-44.8-4.2-21-5-34.6-3.8-59 1.8-34.4 1.4-61.4-1.5-95.5-3.7-43-4.1-54.5-2.9-82 1.2-27.8.4-42.1-3.4-56.4-2-7.4-2.4-10.7-1.9-15.6.6-6 .5-6.4-2.1-8.1-3.6-2.4-15.9-2.8-25-.8z"/></svg>