<?xml version="1.0" encoding="utf-8"?>
<svg width="960" height="6" viewBox="0 0 957.456 6.517" fill="none" xmlns="http://www.w3.org/2000/svg">
  <path d="M320 6C317.496 6 316.188 4.8 315.13 3.83478C314.184 2.97391 313.489 2.34783 312.014 2.34783C310.511 2.34783 309.843 2.97391 308.897 3.83478C307.84 4.8 306.532 6 304.028 6C301.523 6 300.216 4.8 299.158 3.83478C298.212 2.97391 297.517 2.34783 296.042 2.34783C294.567 2.34783 293.871 2.97391 292.925 3.83478C291.868 4.8 290.56 6 288.056 6C285.551 6 284.243 4.8 283.186 3.83478C282.24 2.97391 281.544 2.34783 280.07 2.34783C278.567 2.34783 277.899 2.97391 276.953 3.83478C275.896 4.8 274.588 6 272.083 6C269.579 6 268.271 4.8 267.214 3.83478C266.268 2.97391 265.572 2.34783 264.097 2.34783C262.595 2.34783 261.927 2.97391 260.981 3.83478C259.812 4.8 258.504 6 256 6C253.496 6 252.188 4.8 251.13 3.83478C250.184 2.97391 249.489 2.34783 248.014 2.34783C246.511 2.34783 245.843 2.97391 244.897 3.83478C243.84 4.8 242.532 6 240.028 6C237.523 6 236.216 4.8 235.158 3.83478C234.212 2.97391 233.517 2.34783 232.042 2.34783C230.539 2.34783 229.871 2.97391 228.925 3.83478C227.812 4.8 226.504 6 224 6C221.496 6 220.188 4.8 219.13 3.83478C218.184 2.97391 217.489 2.34783 216.014 2.34783C214.511 2.34783 213.843 2.97391 212.897 3.83478C211.84 4.8 210.532 6 208.028 6C205.523 6 204.216 4.8 203.158 3.83478C202.212 2.97391 201.517 2.34783 200.042 2.34783C198.567 2.34783 197.871 2.97391 196.925 3.83478C195.84 4.8 194.504 6 192 6C189.496 6 188.188 4.8 187.13 3.83478C186.184 2.97391 185.489 2.34783 184.014 2.34783C182.511 2.34783 181.843 2.97391 180.897 3.83478C179.84 4.8 178.532 6 176.028 6C173.523 6 172.216 4.8 171.158 3.83478C170.212 2.97391 169.517 2.34783 168.042 2.34783C166.539 2.34783 165.871 2.97391 164.925 3.83478C163.868 4.8 162.56 6 160.056 6C157.551 6 156.243 4.8 155.186 3.83478C154.24 2.97391 153.544 2.34783 152.07 2.34783C150.595 2.34783 149.899 2.97391 148.953 3.83478C147.896 4.8 146.588 6 144.083 6C141.579 6 140.271 4.8 139.214 3.83478C138.268 2.97391 137.572 2.34783 136.097 2.34783C134.595 2.34783 133.927 2.97391 132.981 3.83478C131.923 4.8 130.616 6 128.111 6C125.607 6 124.299 4.8 123.242 3.83478C122.296 2.97391 121.6 2.34783 120.125 2.34783C118.623 2.34783 117.955 2.97391 117.009 3.83478C115.951 4.8 114.643 6 112.139 6C109.635 6 108.327 4.8 107.27 3.83478C106.323 2.97391 105.628 2.34783 104.153 2.34783C102.65 2.34783 101.983 2.97391 101.037 3.83478C99.9791 4.8 98.6713 6 96.167 6C93.6626 6 92.3548 4.8 91.2974 3.83478C90.3513 2.97391 89.6556 2.34783 88.1809 2.34783C86.7061 2.34783 86.0104 2.97391 85.0643 3.83478C84.007 4.8 82.6991 6 80.1948 6C77.6904 6 76.3826 4.8 75.3252 3.83478C74.3791 2.97391 73.6835 2.34783 72.2087 2.34783C70.7061 2.34783 70.0383 2.97391 69.0922 3.83478C68.0348 4.8 66.727 6 64.2226 6C61.7183 6 60.4104 4.8 59.353 3.83478C58.407 2.97391 57.7113 2.34783 56.2365 2.34783C54.7339 2.34783 54.0661 2.97391 53.12 3.83478C52.0626 4.8 50.7548 6 48.2504 6C45.7461 6 44.4383 4.8 43.3809 3.83478C42.4348 2.97391 41.7391 2.34783 40.2643 2.34783C38.7617 2.34783 38.0939 2.97391 37.1478 3.83478C35.84 4.8 34.5043 6 32 6C29.4957 6 28.1878 4.8 27.1304 3.83478C26.1843 2.97391 25.4887 2.34783 24.0139 2.34783C22.5113 2.34783 21.8435 2.97391 20.8974 3.83478C19.84 4.8 18.5322 6 16.0278 6C13.5235 6 12.2157 4.8 11.1583 3.83478C10.1843 2.97391 9.4887 2.34783 8.01391 2.34783C6.5113 2.34783 5.84348 2.97391 4.89739 3.83478C3.81217 4.8 2.50435 6 0 6V3.65217C1.50261 3.65217 2.17043 3.02609 3.11652 2.16522C4.17391 1.2 5.48174 0 8.01391 0C10.5183 0 11.8261 1.2 12.8835 2.16522C13.8296 3.02609 14.5252 3.65217 16 3.65217C17.5026 3.65217 18.1704 3.02609 19.1165 2.16522C20.1739 1.2 21.5096 0 24.0139 0C26.5183 0 27.8261 1.2 28.8835 2.16522C29.8296 3.02609 30.5252 3.65217 32 3.65217C33.5026 3.65217 34.1704 3.02609 35.1165 2.16522C36.1739 1.2 37.4817 0 39.9861 0C42.4904 0 43.7983 1.2 44.8556 2.16522C45.8017 3.02609 46.4974 3.65217 47.9722 3.65217C49.4748 3.65217 50.1426 3.02609 51.0887 2.16522C52.1461 1.2 53.4539 0 55.9583 0C58.4626 0 59.7704 1.2 60.8278 2.16522C61.7739 3.02609 62.4696 3.65217 63.9443 3.65217C65.447 3.65217 66.1148 3.02609 67.0609 2.16522C68.1183 1.2 69.4261 0 71.9304 0C74.4348 0 75.7426 1.2 76.8 2.16522C77.7461 3.02609 78.4417 3.65217 79.9165 3.65217C81.4191 3.65217 82.087 3.02609 83.033 2.16522C84.0904 1.2 85.3983 0 87.9026 0C90.407 0 91.7148 1.2 92.7722 2.16522C93.7183 3.02609 94.4139 3.65217 95.8887 3.65217C97.3913 3.65217 98.0591 3.02609 99.0052 2.16522C100.063 1.2 101.37 0 103.875 0C106.379 0 107.687 1.2 108.744 2.16522C109.69 3.02609 110.386 3.65217 111.861 3.65217C113.336 3.65217 114.031 3.02609 114.977 2.16522C116.035 1.2 117.343 0 119.847 0C122.351 0 123.659 1.2 124.717 2.16522C125.663 3.02609 126.358 3.65217 127.833 3.65217C129.336 3.65217 130.003 3.02609 130.95 2.16522C132.007 1.2 133.315 0 135.819 0C138.323 0 139.631 1.2 140.689 2.16522C141.635 3.02609 142.33 3.65217 143.805 3.65217C145.308 3.65217 145.976 3.02609 146.922 2.16522C147.979 1.2 149.287 0 151.791 0C154.296 0 155.603 1.2 156.661 2.16522C157.607 3.02609 158.303 3.65217 159.777 3.65217C161.28 3.65217 161.948 3.02609 162.894 2.16522C163.951 1.2 165.259 0 167.763 0C170.268 0 171.576 1.2 172.633 2.16522C173.579 3.02609 174.275 3.65217 175.75 3.65217C177.252 3.65217 177.92 3.02609 178.866 2.16522C179.923 1.2 181.231 0 183.736 0C186.24 0 187.548 1.2 188.605 2.16522C189.551 3.02609 190.247 3.65217 191.722 3.65217C193.224 3.65217 193.892 3.02609 194.838 2.16522C195.896 1.2 197.203 0 199.708 0C202.212 0 203.52 1.2 204.577 2.16522C205.523 3.02609 206.219 3.65217 207.694 3.65217C209.197 3.65217 209.864 3.02609 210.81 2.16522C211.868 1.2 213.176 0 215.68 0C218.184 0 219.492 1.2 220.55 2.16522C221.496 3.02609 222.191 3.65217 223.666 3.65217C225.169 3.65217 225.837 3.02609 226.783 2.16522C228.174 1.2 229.482 0 232.014 0C234.518 0 235.826 1.2 236.883 2.16522C237.83 3.02609 238.525 3.65217 240 3.65217C241.475 3.65217 242.17 3.02609 243.117 2.16522C244.174 1.2 245.482 0 247.986 0C250.49 0 251.798 1.2 252.856 2.16522C253.802 3.02609 254.497 3.65217 255.972 3.65217C257.447 3.65217 258.143 3.02609 259.089 2.16522C260.174 1.2 261.482 0 264.014 0C266.546 0 267.826 1.2 268.883 2.16522C269.83 3.02609 270.525 3.65217 272 3.65217C273.475 3.65217 274.17 3.02609 275.117 2.16522C276.174 1.2 277.482 0 279.986 0C282.49 0 283.798 1.2 284.856 2.16522C285.802 3.02609 286.497 3.65217 287.972 3.65217C289.475 3.65217 290.143 3.02609 291.089 2.16522C292.146 1.2 293.454 0 295.958 0C298.463 0 299.77 1.2 300.828 2.16522C301.774 3.02609 302.47 3.65217 303.944 3.65217C305.419 3.65217 306.115 3.02609 307.061 2.16522C308.118 1.2 309.426 0 311.93 0C314.435 0 315.743 1.2 316.8 2.16522C317.746 3.02609 318.442 3.65217 319.917 3.65217V6H320Z" style="paint-order: fill; fill: rgb(241, 241, 241);"/>
  <path d="M 637.676 6.157 C 635.172 6.157 633.864 4.957 632.806 3.992 C 631.86 3.131 631.165 2.505 629.69 2.505 C 628.187 2.505 627.519 3.131 626.573 3.992 C 625.516 4.957 624.208 6.157 621.704 6.157 C 619.199 6.157 617.892 4.957 616.834 3.992 C 615.888 3.131 615.193 2.505 613.718 2.505 C 612.243 2.505 611.547 3.131 610.601 3.992 C 609.544 4.957 608.236 6.157 605.732 6.157 C 603.227 6.157 601.919 4.957 600.862 3.992 C 599.916 3.131 599.22 2.505 597.746 2.505 C 596.243 2.505 595.575 3.131 594.629 3.992 C 593.572 4.957 592.264 6.157 589.759 6.157 C 587.255 6.157 585.947 4.957 584.89 3.992 C 583.944 3.131 583.248 2.505 581.773 2.505 C 580.271 2.505 579.603 3.131 578.657 3.992 C 577.488 4.957 576.18 6.157 573.676 6.157 C 571.172 6.157 569.864 4.957 568.806 3.992 C 567.86 3.131 567.165 2.505 565.69 2.505 C 564.187 2.505 563.519 3.131 562.573 3.992 C 561.516 4.957 560.208 6.157 557.704 6.157 C 555.199 6.157 553.892 4.957 552.834 3.992 C 551.888 3.131 551.193 2.505 549.718 2.505 C 548.215 2.505 547.547 3.131 546.601 3.992 C 545.488 4.957 544.18 6.157 541.676 6.157 C 539.172 6.157 537.864 4.957 536.806 3.992 C 535.86 3.131 535.165 2.505 533.69 2.505 C 532.187 2.505 531.519 3.131 530.573 3.992 C 529.516 4.957 528.208 6.157 525.704 6.157 C 523.199 6.157 521.892 4.957 520.834 3.992 C 519.888 3.131 519.193 2.505 517.718 2.505 C 516.243 2.505 515.547 3.131 514.601 3.992 C 513.516 4.957 512.18 6.157 509.676 6.157 C 507.172 6.157 505.864 4.957 504.806 3.992 C 503.86 3.131 503.165 2.505 501.69 2.505 C 500.187 2.505 499.519 3.131 498.573 3.992 C 497.516 4.957 496.208 6.157 493.704 6.157 C 491.199 6.157 489.892 4.957 488.834 3.992 C 487.888 3.131 487.193 2.505 485.718 2.505 C 484.215 2.505 483.547 3.131 482.601 3.992 C 481.544 4.957 480.236 6.157 477.732 6.157 C 475.227 6.157 473.919 4.957 472.862 3.992 C 471.916 3.131 471.22 2.505 469.746 2.505 C 468.271 2.505 467.575 3.131 466.629 3.992 C 465.572 4.957 464.264 6.157 461.759 6.157 C 459.255 6.157 457.947 4.957 456.89 3.992 C 455.944 3.131 455.248 2.505 453.773 2.505 C 452.271 2.505 451.603 3.131 450.657 3.992 C 449.599 4.957 448.292 6.157 445.787 6.157 C 443.283 6.157 441.975 4.957 440.918 3.992 C 439.972 3.131 439.276 2.505 437.801 2.505 C 436.299 2.505 435.631 3.131 434.685 3.992 C 433.627 4.957 432.319 6.157 429.815 6.157 C 427.311 6.157 426.003 4.957 424.946 3.992 C 423.999 3.131 423.304 2.505 421.829 2.505 C 420.326 2.505 419.659 3.131 418.713 3.992 C 417.655 4.957 416.348 6.157 413.843 6.157 C 411.339 6.157 410.031 4.957 408.974 3.992 C 408.028 3.131 407.332 2.505 405.857 2.505 C 404.382 2.505 403.687 3.131 402.741 3.992 C 401.683 4.957 400.375 6.157 397.871 6.157 C 395.367 6.157 394.059 4.957 393.001 3.992 C 392.055 3.131 391.36 2.505 389.885 2.505 C 388.382 2.505 387.715 3.131 386.768 3.992 C 385.711 4.957 384.403 6.157 381.899 6.157 C 379.395 6.157 378.087 4.957 377.029 3.992 C 376.083 3.131 375.388 2.505 373.913 2.505 C 372.41 2.505 371.742 3.131 370.796 3.992 C 369.739 4.957 368.431 6.157 365.927 6.157 C 363.422 6.157 362.115 4.957 361.057 3.992 C 360.111 3.131 359.415 2.505 357.941 2.505 C 356.438 2.505 355.77 3.131 354.824 3.992 C 353.516 4.957 352.181 6.157 349.676 6.157 C 347.172 6.157 345.864 4.957 344.807 3.992 C 343.861 3.131 343.165 2.505 341.69 2.505 C 340.188 2.505 339.52 3.131 338.574 3.992 C 337.516 4.957 336.208 6.157 333.704 6.157 C 331.2 6.157 329.892 4.957 328.835 3.992 C 327.861 3.131 327.165 2.505 325.69 2.505 C 324.188 2.505 323.52 3.131 322.574 3.992 C 321.488 4.957 320.181 6.157 317.676 6.157 L 317.676 3.81 C 319.179 3.81 319.847 3.184 320.793 2.323 C 321.85 1.357 323.158 0.157 325.69 0.157 C 328.195 0.157 329.502 1.357 330.56 2.323 C 331.506 3.184 332.201 3.81 333.676 3.81 C 335.179 3.81 335.847 3.184 336.793 2.323 C 337.85 1.357 339.186 0.157 341.69 0.157 C 344.195 0.157 345.502 1.357 346.56 2.323 C 347.506 3.184 348.201 3.81 349.676 3.81 C 351.179 3.81 351.847 3.184 352.793 2.323 C 353.85 1.357 355.158 0.157 357.662 0.157 C 360.167 0.157 361.475 1.357 362.532 2.323 C 363.478 3.184 364.174 3.81 365.648 3.81 C 367.151 3.81 367.819 3.184 368.765 2.323 C 369.822 1.357 371.13 0.157 373.635 0.157 C 376.139 0.157 377.447 1.357 378.504 2.323 C 379.45 3.184 380.146 3.81 381.621 3.81 C 383.123 3.81 383.791 3.184 384.737 2.323 C 385.795 1.357 387.102 0.157 389.607 0.157 C 392.111 0.157 393.419 1.357 394.476 2.323 C 395.422 3.184 396.118 3.81 397.593 3.81 C 399.095 3.81 399.763 3.184 400.709 2.323 C 401.767 1.357 403.075 0.157 405.579 0.157 C 408.083 0.157 409.391 1.357 410.448 2.323 C 411.395 3.184 412.09 3.81 413.565 3.81 C 415.068 3.81 415.735 3.184 416.681 2.323 C 417.739 1.357 419.046 0.157 421.551 0.157 C 424.055 0.157 425.363 1.357 426.42 2.323 C 427.366 3.184 428.062 3.81 429.537 3.81 C 431.012 3.81 431.707 3.184 432.653 2.323 C 433.711 1.357 435.019 0.157 437.523 0.157 C 440.027 0.157 441.335 1.357 442.393 2.323 C 443.339 3.184 444.034 3.81 445.509 3.81 C 447.012 3.81 447.679 3.184 448.626 2.323 C 449.683 1.357 450.991 0.157 453.495 0.157 C 455.999 0.157 457.307 1.357 458.365 2.323 C 459.311 3.184 460.006 3.81 461.481 3.81 C 462.984 3.81 463.652 3.184 464.598 2.323 C 465.655 1.357 466.963 0.157 469.467 0.157 C 471.972 0.157 473.279 1.357 474.337 2.323 C 475.283 3.184 475.979 3.81 477.453 3.81 C 478.956 3.81 479.624 3.184 480.57 2.323 C 481.627 1.357 482.935 0.157 485.439 0.157 C 487.944 0.157 489.252 1.357 490.309 2.323 C 491.255 3.184 491.951 3.81 493.426 3.81 C 494.928 3.81 495.596 3.184 496.542 2.323 C 497.599 1.357 498.907 0.157 501.412 0.157 C 503.916 0.157 505.224 1.357 506.281 2.323 C 507.227 3.184 507.923 3.81 509.398 3.81 C 510.9 3.81 511.568 3.184 512.514 2.323 C 513.572 1.357 514.879 0.157 517.384 0.157 C 519.888 0.157 521.196 1.357 522.253 2.323 C 523.199 3.184 523.895 3.81 525.37 3.81 C 526.873 3.81 527.54 3.184 528.486 2.323 C 529.544 1.357 530.852 0.157 533.356 0.157 C 535.86 0.157 537.168 1.357 538.226 2.323 C 539.172 3.184 539.867 3.81 541.342 3.81 C 542.845 3.81 543.513 3.184 544.459 2.323 C 545.85 1.357 547.158 0.157 549.69 0.157 C 552.194 0.157 553.502 1.357 554.559 2.323 C 555.506 3.184 556.201 3.81 557.676 3.81 C 559.151 3.81 559.846 3.184 560.793 2.323 C 561.85 1.357 563.158 0.157 565.662 0.157 C 568.166 0.157 569.474 1.357 570.532 2.323 C 571.478 3.184 572.173 3.81 573.648 3.81 C 575.123 3.81 575.819 3.184 576.765 2.323 C 577.85 1.357 579.158 0.157 581.69 0.157 C 584.222 0.157 585.502 1.357 586.559 2.323 C 587.506 3.184 588.201 3.81 589.676 3.81 C 591.151 3.81 591.846 3.184 592.793 2.323 C 593.85 1.357 595.158 0.157 597.662 0.157 C 600.166 0.157 601.474 1.357 602.532 2.323 C 603.478 3.184 604.173 3.81 605.648 3.81 C 607.151 3.81 607.819 3.184 608.765 2.323 C 609.822 1.357 611.13 0.157 613.634 0.157 C 616.139 0.157 617.446 1.357 618.504 2.323 C 619.45 3.184 620.146 3.81 621.62 3.81 C 623.095 3.81 623.791 3.184 624.737 2.323 C 625.794 1.357 627.102 0.157 629.606 0.157 C 632.111 0.157 633.419 1.357 634.476 2.323 C 635.422 3.184 636.118 3.81 637.593 3.81 L 637.593 6.157 L 637.676 6.157 Z" style="fill: rgb(241, 241, 241);"/>
  <text style="font-size: 36; font-family: Roboto; white-space: pre;" x="540.537" y="15.185">https://boxy-svg.com/</text>
  <path d="M 957.523 6.216 C 955.019 6.216 953.711 5.016 952.653 4.051 C 951.707 3.19 951.012 2.564 949.537 2.564 C 948.034 2.564 947.366 3.19 946.42 4.051 C 945.363 5.016 944.055 6.216 941.551 6.216 C 939.046 6.216 937.739 5.016 936.681 4.051 C 935.735 3.19 935.04 2.564 933.565 2.564 C 932.09 2.564 931.394 3.19 930.448 4.051 C 929.391 5.016 928.083 6.216 925.579 6.216 C 923.074 6.216 921.766 5.016 920.709 4.051 C 919.763 3.19 919.067 2.564 917.593 2.564 C 916.09 2.564 915.422 3.19 914.476 4.051 C 913.419 5.016 912.111 6.216 909.606 6.216 C 907.102 6.216 905.794 5.016 904.737 4.051 C 903.791 3.19 903.095 2.564 901.62 2.564 C 900.118 2.564 899.45 3.19 898.504 4.051 C 897.335 5.016 896.027 6.216 893.523 6.216 C 891.019 6.216 889.711 5.016 888.653 4.051 C 887.707 3.19 887.012 2.564 885.537 2.564 C 884.034 2.564 883.366 3.19 882.42 4.051 C 881.363 5.016 880.055 6.216 877.551 6.216 C 875.046 6.216 873.739 5.016 872.681 4.051 C 871.735 3.19 871.04 2.564 869.565 2.564 C 868.062 2.564 867.394 3.19 866.448 4.051 C 865.335 5.016 864.027 6.216 861.523 6.216 C 859.019 6.216 857.711 5.016 856.653 4.051 C 855.707 3.19 855.012 2.564 853.537 2.564 C 852.034 2.564 851.366 3.19 850.42 4.051 C 849.363 5.016 848.055 6.216 845.551 6.216 C 843.046 6.216 841.739 5.016 840.681 4.051 C 839.735 3.19 839.04 2.564 837.565 2.564 C 836.09 2.564 835.394 3.19 834.448 4.051 C 833.363 5.016 832.027 6.216 829.523 6.216 C 827.019 6.216 825.711 5.016 824.653 4.051 C 823.707 3.19 823.012 2.564 821.537 2.564 C 820.034 2.564 819.366 3.19 818.42 4.051 C 817.363 5.016 816.055 6.216 813.551 6.216 C 811.046 6.216 809.739 5.016 808.681 4.051 C 807.735 3.19 807.04 2.564 805.565 2.564 C 804.062 2.564 803.394 3.19 802.448 4.051 C 801.391 5.016 800.083 6.216 797.579 6.216 C 795.074 6.216 793.766 5.016 792.709 4.051 C 791.763 3.19 791.067 2.564 789.593 2.564 C 788.118 2.564 787.422 3.19 786.476 4.051 C 785.419 5.016 784.111 6.216 781.606 6.216 C 779.102 6.216 777.794 5.016 776.737 4.051 C 775.791 3.19 775.095 2.564 773.62 2.564 C 772.118 2.564 771.45 3.19 770.504 4.051 C 769.446 5.016 768.139 6.216 765.634 6.216 C 763.13 6.216 761.822 5.016 760.765 4.051 C 759.819 3.19 759.123 2.564 757.648 2.564 C 756.146 2.564 755.478 3.19 754.532 4.051 C 753.474 5.016 752.166 6.216 749.662 6.216 C 747.158 6.216 745.85 5.016 744.793 4.051 C 743.846 3.19 743.151 2.564 741.676 2.564 C 740.173 2.564 739.506 3.19 738.56 4.051 C 737.502 5.016 736.195 6.216 733.69 6.216 C 731.186 6.216 729.878 5.016 728.821 4.051 C 727.875 3.19 727.179 2.564 725.704 2.564 C 724.229 2.564 723.534 3.19 722.588 4.051 C 721.53 5.016 720.222 6.216 717.718 6.216 C 715.214 6.216 713.906 5.016 712.848 4.051 C 711.902 3.19 711.207 2.564 709.732 2.564 C 708.229 2.564 707.562 3.19 706.615 4.051 C 705.558 5.016 704.25 6.216 701.746 6.216 C 699.242 6.216 697.934 5.016 696.876 4.051 C 695.93 3.19 695.235 2.564 693.76 2.564 C 692.257 2.564 691.589 3.19 690.643 4.051 C 689.586 5.016 688.278 6.216 685.774 6.216 C 683.269 6.216 681.962 5.016 680.904 4.051 C 679.958 3.19 679.262 2.564 677.788 2.564 C 676.285 2.564 675.617 3.19 674.671 4.051 C 673.363 5.016 672.028 6.216 669.523 6.216 C 667.019 6.216 665.711 5.016 664.654 4.051 C 663.708 3.19 663.012 2.564 661.537 2.564 C 660.035 2.564 659.367 3.19 658.421 4.051 C 657.363 5.016 656.055 6.216 653.551 6.216 C 651.047 6.216 649.739 5.016 648.682 4.051 C 647.708 3.19 647.012 2.564 645.537 2.564 C 644.035 2.564 643.367 3.19 642.421 4.051 C 641.335 5.016 640.028 6.216 637.523 6.216 L 637.523 3.869 C 639.026 3.869 639.694 3.243 640.64 2.382 C 641.697 1.416 643.005 0.216 645.537 0.216 C 648.042 0.216 649.349 1.416 650.407 2.382 C 651.353 3.243 652.048 3.869 653.523 3.869 C 655.026 3.869 655.694 3.243 656.64 2.382 C 657.697 1.416 659.033 0.216 661.537 0.216 C 664.042 0.216 665.349 1.416 666.407 2.382 C 667.353 3.243 668.048 3.869 669.523 3.869 C 671.026 3.869 671.694 3.243 672.64 2.382 C 673.697 1.416 675.005 0.216 677.509 0.216 C 680.014 0.216 681.322 1.416 682.379 2.382 C 683.325 3.243 684.021 3.869 685.495 3.869 C 686.998 3.869 687.666 3.243 688.612 2.382 C 689.669 1.416 690.977 0.216 693.482 0.216 C 695.986 0.216 697.294 1.416 698.351 2.382 C 699.297 3.243 699.993 3.869 701.468 3.869 C 702.97 3.869 703.638 3.243 704.584 2.382 C 705.642 1.416 706.949 0.216 709.454 0.216 C 711.958 0.216 713.266 1.416 714.323 2.382 C 715.269 3.243 715.965 3.869 717.44 3.869 C 718.942 3.869 719.61 3.243 720.556 2.382 C 721.614 1.416 722.922 0.216 725.426 0.216 C 727.93 0.216 729.238 1.416 730.295 2.382 C 731.242 3.243 731.937 3.869 733.412 3.869 C 734.915 3.869 735.582 3.243 736.528 2.382 C 737.586 1.416 738.893 0.216 741.398 0.216 C 743.902 0.216 745.21 1.416 746.267 2.382 C 747.213 3.243 747.909 3.869 749.384 3.869 C 750.859 3.869 751.554 3.243 752.5 2.382 C 753.558 1.416 754.866 0.216 757.37 0.216 C 759.874 0.216 761.182 1.416 762.24 2.382 C 763.186 3.243 763.881 3.869 765.356 3.869 C 766.859 3.869 767.526 3.243 768.473 2.382 C 769.53 1.416 770.838 0.216 773.342 0.216 C 775.846 0.216 777.154 1.416 778.212 2.382 C 779.158 3.243 779.853 3.869 781.328 3.869 C 782.831 3.869 783.499 3.243 784.445 2.382 C 785.502 1.416 786.81 0.216 789.314 0.216 C 791.819 0.216 793.126 1.416 794.184 2.382 C 795.13 3.243 795.826 3.869 797.3 3.869 C 798.803 3.869 799.471 3.243 800.417 2.382 C 801.474 1.416 802.782 0.216 805.286 0.216 C 807.791 0.216 809.099 1.416 810.156 2.382 C 811.102 3.243 811.798 3.869 813.273 3.869 C 814.775 3.869 815.443 3.243 816.389 2.382 C 817.446 1.416 818.754 0.216 821.259 0.216 C 823.763 0.216 825.071 1.416 826.128 2.382 C 827.074 3.243 827.77 3.869 829.245 3.869 C 830.747 3.869 831.415 3.243 832.361 2.382 C 833.419 1.416 834.726 0.216 837.231 0.216 C 839.735 0.216 841.043 1.416 842.1 2.382 C 843.046 3.243 843.742 3.869 845.217 3.869 C 846.72 3.869 847.387 3.243 848.333 2.382 C 849.391 1.416 850.699 0.216 853.203 0.216 C 855.707 0.216 857.015 1.416 858.073 2.382 C 859.019 3.243 859.714 3.869 861.189 3.869 C 862.692 3.869 863.36 3.243 864.306 2.382 C 865.697 1.416 867.005 0.216 869.537 0.216 C 872.041 0.216 873.349 1.416 874.406 2.382 C 875.353 3.243 876.048 3.869 877.523 3.869 C 878.998 3.869 879.693 3.243 880.64 2.382 C 881.697 1.416 883.005 0.216 885.509 0.216 C 888.013 0.216 889.321 1.416 890.379 2.382 C 891.325 3.243 892.02 3.869 893.495 3.869 C 894.97 3.869 895.666 3.243 896.612 2.382 C 897.697 1.416 899.005 0.216 901.537 0.216 C 904.069 0.216 905.349 1.416 906.406 2.382 C 907.353 3.243 908.048 3.869 909.523 3.869 C 910.998 3.869 911.693 3.243 912.64 2.382 C 913.697 1.416 915.005 0.216 917.509 0.216 C 920.013 0.216 921.321 1.416 922.379 2.382 C 923.325 3.243 924.02 3.869 925.495 3.869 C 926.998 3.869 927.666 3.243 928.612 2.382 C 929.669 1.416 930.977 0.216 933.481 0.216 C 935.986 0.216 937.293 1.416 938.351 2.382 C 939.297 3.243 939.993 3.869 941.467 3.869 C 942.942 3.869 943.638 3.243 944.584 2.382 C 945.641 1.416 946.949 0.216 949.453 0.216 C 951.958 0.216 953.266 1.416 954.323 2.382 C 955.269 3.243 955.965 3.869 957.44 3.869 L 957.44 6.216 L 957.523 6.216 Z" style="fill: rgb(241, 241, 241);"/>
</svg>
