<?xml version="1.0" encoding="utf-8"?>
<svg width="1440" height="24" viewBox="-1.028 0 1540.013 24.001" fill="none" xmlns="http://www.w3.org/2000/svg">
  <path d="M749.784 0C740.142 0 740.142 9.88235 730.567 9.88235C720.992 9.88235 720.925 0 711.35 0C701.776 0 701.709 9.88235 692.134 9.88235C682.492 9.88235 682.492 0 672.85 0C663.209 0 663.209 9.88235 653.634 9.88235C643.992 9.88235 643.992 0 634.417 0C624.776 0 624.776 9.88235 615.201 9.88235C605.626 9.88235 605.358 0 595.783 0C586.142 0 586.142 9.88235 576.567 9.88235C566.992 9.88235 566.858 0 557.283 0C547.642 0 547.642 9.88235 538.067 9.88235C528.425 9.88235 528.425 0 518.783 0C509.142 0 509.142 9.88235 499.567 9.88235C489.925 9.88235 489.925 0 480.35 0C470.776 0 470.642 9.88235 461 9.88235C451.358 9.88235 451.358 0 441.783 0C432.142 0 432.142 9.88235 422.567 9.88235C412.925 9.88235 412.925 0 403.283 0C393.642 0 393.642 9.88235 384.067 9.88235C374.425 9.88235 374.425 0 364.85 0C355.209 0 355.209 9.88235 345.634 9.88235C335.992 9.88235 335.992 0 326.417 0C316.776 0 316.776 9.88235 307.134 9.88235C297.492 9.88235 297.492 0 287.85 0C278.209 0 278.209 9.88235 268.567 9.88235C258.925 9.88235 258.925 0 249.283 0C239.642 0 239.642 9.88235 230 9.88235C220.358 9.88235 220.358 0 210.717 0C201.075 0 201.075 9.88235 191.433 9.88235C181.791 9.88235 181.791 0 172.15 0C162.508 0 162.508 9.88235 152.933 9.88235C143.291 9.88235 143.291 0 133.65 0C124.008 0 124.008 9.88235 114.366 9.88235C104.724 9.88235 104.724 0 95.0826 0C85.4409 0 85.4409 9.88235 75.7991 9.88235C66.1574 9.88235 66.1574 0 56.5157 0C47.1417 0 47.1417 9.88235 37.5 9.88235C27.8583 9.88235 27.8583 0 18.2835 0C8.70869 0 8.64174 9.88235 -1 9.88235V24H769V9.88235C759.358 9.88235 759.358 0 749.784 0Z" fill="white"/>
  <path d="M 1519.784 0 C 1510.142 0 1510.142 9.882 1500.567 9.882 C 1490.992 9.882 1490.925 0 1481.35 0 C 1471.776 0 1471.709 9.882 1462.134 9.882 C 1452.492 9.882 1452.492 0 1442.85 0 C 1433.209 0 1433.209 9.882 1423.634 9.882 C 1413.992 9.882 1413.992 0 1404.417 0 C 1394.776 0 1394.776 9.882 1385.201 9.882 C 1375.626 9.882 1375.358 0 1365.783 0 C 1356.142 0 1356.142 9.882 1346.567 9.882 C 1336.992 9.882 1336.858 0 1327.283 0 C 1317.642 0 1317.642 9.882 1308.067 9.882 C 1298.425 9.882 1298.425 0 1288.783 0 C 1279.142 0 1279.142 9.882 1269.567 9.882 C 1259.925 9.882 1259.925 0 1250.35 0 C 1240.776 0 1240.642 9.882 1231 9.882 C 1221.358 9.882 1221.358 0 1211.783 0 C 1202.142 0 1202.142 9.882 1192.567 9.882 C 1182.925 9.882 1182.925 0 1173.283 0 C 1163.642 0 1163.642 9.882 1154.067 9.882 C 1144.425 9.882 1144.425 0 1134.85 0 C 1125.209 0 1125.209 9.882 1115.634 9.882 C 1105.992 9.882 1105.992 0 1096.417 0 C 1086.776 0 1086.776 9.882 1077.134 9.882 C 1067.492 9.882 1067.492 0 1057.85 0 C 1048.209 0 1048.209 9.882 1038.567 9.882 C 1028.925 9.882 1028.925 0 1019.283 0 C 1009.642 0 1009.642 9.882 1000 9.882 C 990.358 9.882 990.358 0 980.717 0 C 971.075 0 971.075 9.882 961.433 9.882 C 951.791 9.882 951.791 0 942.15 0 C 932.508 0 932.508 9.882 922.933 9.882 C 913.291 9.882 913.291 0 903.65 0 C 894.008 0 894.008 9.882 884.366 9.882 C 874.724 9.882 874.724 0 865.083 0 C 855.441 0 855.441 9.882 845.799 9.882 C 836.158 9.882 836.158 0 826.516 0 C 817.142 0 817.142 9.882 807.5 9.882 C 797.859 9.882 797.859 0 788.284 0 C 778.709 0 778.642 9.882 769 9.882 L 769 24 L 1539 24 L 1539 9.882 C 1529.358 9.882 1529.358 0 1519.784 0 Z" fill="white"/>
</svg>
